<svg width="37" height="37" viewBox="0 0 37 37" fill="none" xmlns="http://www.w3.org/2000/svg">
<g clip-path="url(#clip0_34717_6864)">
<path d="M30.6465 11.8749H24.0215C23.1432 11.8758 22.3012 12.2251 21.6802 12.8461C21.0591 13.4671 20.7099 14.3092 20.709 15.1874V21.8124C20.7096 22.3979 20.9424 22.9593 21.3564 23.3733C21.7705 23.7873 22.3318 24.0202 22.9173 24.0208V31.7499C22.9179 32.3354 23.1508 32.8968 23.5648 33.3108C23.9788 33.7248 24.5401 33.9577 25.1257 33.9583H29.5423C30.1278 33.9577 30.6892 33.7248 31.1032 33.3108C31.5172 32.8968 31.7501 32.3354 31.7507 31.7499V24.0208C32.3362 24.0202 32.8975 23.7873 33.3115 23.3733C33.7255 22.9593 33.9584 22.3979 33.959 21.8124V15.1874C33.9581 14.3092 33.6088 13.4671 32.9878 12.8461C32.3668 12.2251 31.5247 11.8758 30.6465 11.8749ZM31.7507 21.8124H29.5423V31.7499H25.1257V21.8124H22.9173V15.1874C22.9173 14.8946 23.0336 14.6137 23.2407 14.4067C23.4478 14.1996 23.7286 14.0833 24.0215 14.0833H30.6465C30.9393 14.0833 31.2202 14.1996 31.4272 14.4067C31.6343 14.6137 31.7507 14.8946 31.7507 15.1874V21.8124Z" fill="#2C49FE"/>
<path d="M22.918 6.35411C22.918 5.48057 23.177 4.62666 23.6623 3.90034C24.1476 3.17402 24.8374 2.60793 25.6445 2.27364C26.4515 1.93935 27.3395 1.85189 28.1963 2.02231C29.053 2.19272 29.84 2.61337 30.4577 3.23105C31.0754 3.84873 31.496 4.63571 31.6664 5.49246C31.8369 6.34921 31.7494 7.23725 31.4151 8.04429C31.0808 8.85133 30.5147 9.54112 29.7884 10.0264C29.0621 10.5117 28.2082 10.7708 27.3346 10.7708C26.1636 10.7696 25.0409 10.3039 24.2129 9.47587C23.3848 8.64784 22.9191 7.52512 22.918 6.35411ZM25.1263 6.35411C25.1263 6.79087 25.2558 7.21783 25.4985 7.58099C25.7411 7.94415 26.086 8.2272 26.4895 8.39434C26.8931 8.56149 27.3371 8.60522 27.7655 8.52001C28.1938 8.4348 28.5873 8.22448 28.8962 7.91564C29.205 7.60679 29.4153 7.21331 29.5005 6.78493C29.5857 6.35656 29.542 5.91254 29.3749 5.50902C29.2077 5.10549 28.9247 4.7606 28.5615 4.51795C28.1984 4.27529 27.7714 4.14577 27.3346 4.14577C26.7491 4.14636 26.1878 4.37921 25.7738 4.79323C25.3597 5.20724 25.1269 5.7686 25.1263 6.35411Z" fill="#2C49FE"/>
<path d="M16.2923 18.4999V15.1874C16.2914 14.3092 15.9422 13.4671 15.3211 12.8461C14.7001 12.2251 13.8581 11.8758 12.9798 11.8749H6.35482C5.47656 11.8758 4.63452 12.2251 4.01349 12.8461C3.39247 13.4671 3.04319 14.3092 3.04232 15.1874V18.4999H0.833984V20.7083H18.5007V18.4999H16.2923ZM5.25065 15.1874C5.25065 14.8946 5.36698 14.6137 5.57405 14.4067C5.78113 14.1996 6.06197 14.0833 6.35482 14.0833H12.9798C13.2727 14.0833 13.5535 14.1996 13.7606 14.4067C13.9677 14.6137 14.084 14.8946 14.084 15.1874V18.4999H5.25065V15.1874Z" fill="#2C49FE"/>
<path d="M5.25 6.35411C5.25 5.48057 5.50903 4.62666 5.99434 3.90034C6.47965 3.17402 7.16944 2.60793 7.97648 2.27364C8.78352 1.93935 9.67157 1.85189 10.5283 2.02231C11.3851 2.19272 12.172 2.61337 12.7897 3.23105C13.4074 3.84873 13.8281 4.63571 13.9985 5.49246C14.1689 6.34921 14.0814 7.23725 13.7471 8.04429C13.4128 8.85133 12.8468 9.54112 12.1204 10.0264C11.3941 10.5117 10.5402 10.7708 9.66667 10.7708C8.49565 10.7696 7.37294 10.3039 6.5449 9.47587C5.71687 8.64784 5.25117 7.52512 5.25 6.35411ZM7.45833 6.35411C7.45833 6.79087 7.58785 7.21783 7.8305 7.58099C8.07316 7.94415 8.41805 8.2272 8.82157 8.39434C9.22509 8.56149 9.66912 8.60522 10.0975 8.52001C10.5259 8.4348 10.9194 8.22448 11.2282 7.91564C11.537 7.60679 11.7474 7.21331 11.8326 6.78493C11.9178 6.35656 11.874 5.91254 11.7069 5.50902C11.5398 5.10549 11.2567 4.7606 10.8936 4.51795C10.5304 4.27529 10.1034 4.14577 9.66667 4.14577C9.08116 4.14636 8.5198 4.37921 8.10579 4.79323C7.69177 5.20724 7.45892 5.7686 7.45833 6.35411Z" fill="#2C49FE"/>
</g>
<defs>
<clipPath id="clip0_34717_6864">
<rect width="35.3333" height="35.3333" fill="white" transform="translate(0.833984 0.833313)"/>
</clipPath>
</defs>
</svg>
